# Blender v3.0.0 OBJ File: 'rock02.blend'
# www.blender.org
mtllib rock02.mtl
o Cube
v 1.000000 0.929805 1.065581
v 1.000000 1.065581 -0.929805
v 1.725568 -1.929015 1.538521
v 1.644999 -1.341115 -1.668523
v -1.465309 1.550866 1.645761
v -1.000000 1.065581 -0.929805
v -1.465309 -1.552267 1.434609
v -1.465309 -1.341115 -1.668523
v -0.034391 1.568921 -1.357884
v 0.000000 -1.065581 0.929805
v -0.034391 -0.409417 -1.492499
v -0.079886 0.824856 1.687631
v 0.778583 0.883135 -0.009343
v -1.369444 -1.185658 -0.207178
v 1.300662 -1.185658 -0.207178
v -1.380084 0.952157 -0.019850
v -0.004186 2.835814 -0.012768
v 0.089845 -1.446691 -0.116957
v -0.938356 0.093323 -0.923540
v 0.616803 -0.051978 1.211845
v -1.239594 -0.023235 1.328349
v 1.000000 0.077670 -0.997027
v -0.060464 0.112866 -1.902863
v -0.046480 -0.045296 1.815891
v 1.644999 0.120089 -0.010346
v -1.465309 0.120089 -0.010346
vt 0.750000 0.623774
vt 0.875000 0.623774
vt 0.875000 0.750000
vt 0.750000 0.750000
vt 0.500000 0.875000
vt 0.625000 0.875000
vt 0.625000 1.000000
vt 0.500000 1.000000
vt 0.500000 0.126226
vt 0.625000 0.126226
vt 0.625000 0.250000
vt 0.500000 0.250000
vt 0.250000 0.623774
vt 0.375000 0.623774
vt 0.375000 0.750000
vt 0.250000 0.750000
vt 0.500000 0.623774
vt 0.625000 0.623774
vt 0.625000 0.750000
vt 0.500000 0.750000
vt 0.500000 0.375000
vt 0.625000 0.375000
vt 0.625000 0.500000
vt 0.500000 0.500000
vt 0.125000 0.623774
vt 0.125000 0.750000
vt 0.375000 0.875000
vt 0.375000 0.250000
vt 0.375000 0.375000
vt 0.375000 0.500000
vt 0.375000 0.126226
vt 0.375000 1.000000
vt 0.375000 0.000000
vt 0.500000 0.000000
vt 0.750000 0.500000
vt 0.125000 0.500000
vt 0.250000 0.500000
vt 0.625000 0.000000
vt 0.875000 0.500000
vn 0.0579 -0.2957 0.9535
vn 0.0784 -0.9969 0.0108
vn -0.9963 -0.0654 0.0565
vn 0.3271 0.2362 -0.9150
vn 0.9357 0.2354 0.2628
vn 0.7119 0.5903 0.3804
vn -0.3681 0.8635 0.3447
vn -0.4097 0.2547 -0.8760
vn -0.1820 -0.9777 -0.1050
vn -0.0822 -0.2204 0.9719
vn -0.2418 -0.9211 -0.3051
vn -0.6855 0.5996 -0.4130
vn 0.8041 0.5598 -0.2001
vn 0.9797 0.1503 -0.1325
vn -0.8954 0.0078 -0.4451
vn 0.2418 -0.9211 -0.3051
vn -0.9576 0.2161 -0.1904
vn 0.8817 0.4426 -0.1633
vn 0.5748 0.0127 0.8182
vn -0.6273 0.1599 -0.7622
vn 0.9017 0.2773 0.3318
vn 0.5620 0.1953 -0.8037
vn -0.9977 0.0441 0.0510
vn -0.2276 -0.0991 0.9687
usemtl Material
s off
f 24/1/1 21/2/1 7/3/1 10/4/1
f 18/5/2 10/6/2 7/7/2 14/8/2
f 26/9/3 21/10/3 5/11/3 16/12/3
f 23/13/4 22/14/4 4/15/4 11/16/4
f 25/17/5 20/18/5 3/19/5 15/20/5
f 17/21/6 12/22/6 1/23/6 13/24/6
f 16/12/7 5/11/7 12/22/7 17/21/7
f 19/25/8 23/13/8 11/16/8 8/26/8
f 15/20/9 3/19/9 10/6/9 18/5/9
f 20/18/10 24/1/10 10/4/10 3/19/10
f 4/15/11 15/20/11 18/5/11 11/27/11
f 6/28/12 16/12/12 17/21/12 9/29/12
f 9/29/13 17/21/13 13/24/13 2/30/13
f 22/14/14 25/17/14 15/20/14 4/15/14
f 19/31/15 26/9/15 16/12/15 6/28/15
f 11/27/16 18/5/16 14/8/16 8/32/16
f 8/33/17 14/34/17 26/9/17 19/31/17
f 2/30/18 13/24/18 25/17/18 22/14/18
f 1/23/19 12/35/19 24/1/19 20/18/19
f 6/36/20 9/37/20 23/13/20 19/25/20
f 13/24/21 1/23/21 20/18/21 25/17/21
f 9/37/22 2/30/22 22/14/22 23/13/22
f 14/34/23 7/38/23 21/10/23 26/9/23
f 12/35/24 5/39/24 21/2/24 24/1/24
