# Blender v3.0.0 OBJ File: 'PickAxe.blend'
# www.blender.org
mtllib PickAxe.mtl
o Cube
v 0.267978 2.652550 -0.256032
v 0.267978 -2.208917 -0.256032
v 0.267978 2.652550 0.256032
v 0.267978 -2.208917 0.256032
v -0.267978 2.652550 -0.256032
v -0.267978 -2.208917 -0.256032
v -0.267978 2.652550 0.256032
v -0.267978 -2.208917 0.256032
v 0.000000 -2.208917 -0.376292
v 0.000000 2.652550 0.376292
v 0.000000 -2.208917 0.376292
v 0.000000 2.652550 -0.376292
v -0.393850 -2.208917 0.000000
v 0.393850 2.652550 0.000000
v -0.393850 2.652550 0.000000
v 0.393850 -2.208917 0.000000
v -0.588452 -2.952805 0.000000
v 0.000000 3.627165 0.475983
v 0.000000 2.866662 0.475983
v -0.338974 2.866662 0.323863
v 0.498192 2.866662 0.000000
v 0.338974 2.866662 0.323863
v -0.498192 2.866662 0.000000
v -0.338974 2.866662 -0.323863
v 0.000000 2.866662 -0.475983
v 0.338974 2.866662 -0.323863
v 0.000000 3.798926 0.415246
v -0.338974 3.627165 0.323863
v 0.498192 3.627165 0.000000
v 0.338974 3.627165 0.323863
v -0.498192 3.627165 0.000000
v -0.338974 3.627165 -0.323863
v 0.000000 3.627165 -0.475983
v 0.338974 3.627165 -0.323863
v 0.000000 3.905316 0.415246
v -0.295719 3.798926 0.282536
v 0.434620 3.798926 0.000000
v 0.295719 3.798926 0.282536
v -0.434620 3.798926 0.000000
v -0.295719 3.798926 -0.282536
v 0.000000 3.798926 -0.415246
v 0.295719 3.798926 -0.282536
v 0.000000 4.030251 0.238743
v -0.295719 3.905316 0.282536
v 0.434620 3.905316 0.000000
v 0.295719 3.905316 0.282536
v -0.434620 3.905316 0.000000
v -0.295719 3.905316 -0.282536
v 0.000000 3.905316 -0.415246
v 0.295719 3.905316 -0.282536
v -0.170022 4.030251 0.162442
v 0.249882 4.030251 0.000000
v 0.170022 4.030251 0.162442
v -0.249882 4.030251 0.000000
v -0.170022 4.030251 -0.162442
v 0.000000 4.030251 -0.238743
v 0.170022 4.030251 -0.162442
v 0.000000 4.030251 0.000000
v -0.393850 -2.793278 0.000000
v -0.267978 -2.793278 0.256032
v 0.000000 -2.793278 -0.376292
v -0.267978 -2.793278 -0.256032
v 0.000000 -2.793278 0.376292
v 0.267978 -2.793278 0.256032
v 0.393850 -2.793278 0.000000
v 0.267978 -2.793278 -0.256032
v -0.588452 -3.754616 0.000000
v -0.400388 -2.952805 0.382539
v -0.000000 -2.952805 -0.562220
v -0.400388 -2.952805 -0.382539
v -0.000000 -2.952805 0.562220
v 0.400388 -2.952805 0.382539
v 0.588452 -2.952805 0.000000
v 0.400388 -2.952805 -0.382539
v -0.400388 -3.754616 0.382539
v -0.000000 -3.754616 -0.562220
v -0.400388 -3.754616 -0.382539
v -0.000000 -3.754616 0.562220
v 0.400388 -3.754616 0.382539
v 0.588452 -3.754616 0.000000
v 0.400388 -3.754616 -0.382539
v -0.332584 -4.077710 0.000000
v -0.226292 -4.077710 0.216205
v 0.000000 -4.077710 -0.317758
v -0.226292 -4.077710 -0.216205
v 0.000000 -4.077710 0.317758
v 0.226292 -4.077710 0.216205
v 0.332584 -4.077710 0.000000
v 0.226292 -4.077710 -0.216205
v 0.000000 -4.077710 0.000000
vt 0.520487 0.348765
vt 0.520487 0.727589
vt 0.499468 0.727336
vt 0.499468 0.348511
vt 0.326456 0.318745
vt 0.325788 0.739349
vt 0.315903 0.748934
vt 0.316421 0.309284
vt 0.291906 0.304654
vt 0.267543 0.309575
vt 0.267499 0.255715
vt 0.291916 0.249554
vt 0.550777 0.347934
vt 0.550776 0.726758
vt 0.541244 0.727320
vt 0.541244 0.348495
vt 0.291827 0.753620
vt 0.267904 0.748640
vt 0.541244 0.302959
vt 0.550777 0.302398
vt 0.499468 0.302976
vt 0.520487 0.303229
vt 0.258290 0.738953
vt 0.257778 0.319136
vt 0.316484 0.255351
vt 0.326538 0.267194
vt 0.489378 0.726782
vt 0.489378 0.347958
vt 0.625000 0.875000
vt 0.625000 0.750000
vt 0.625000 0.750000
vt 0.625000 0.875000
vt 0.625000 0.125000
vt 0.625000 0.000000
vt 0.625000 0.000000
vt 0.625000 0.125000
vt 0.625000 0.625000
vt 0.625000 0.625000
vt 0.625000 0.500000
vt 0.625000 0.375000
vt 0.625000 0.375000
vt 0.625000 0.500000
vt 0.550875 0.611972
vt 0.560174 0.647166
vt 0.541884 0.644604
vt 0.536040 0.623127
vt 0.538293 0.675914
vt 0.502593 0.684739
vt 0.506532 0.667821
vt 0.528543 0.662341
vt 0.472008 0.664385
vt 0.487742 0.655206
vt 0.625000 0.250000
vt 0.625000 0.250000
vt 0.625000 1.000000
vt 0.625000 1.000000
vt 0.511719 0.639281
vt 0.481411 0.633934
vt 0.494543 0.615739
vt 0.517042 0.609998
vt 0.461407 0.629734
vt 0.482731 0.599765
vt 0.519731 0.590245
vt 0.489378 0.302422
vt 0.257715 0.267683
vt 0.540717 0.404104
vt 0.576418 0.407467
vt 0.587171 0.434288
vt 0.541052 0.430902
vt 0.571296 0.421056
vt 0.539274 0.424055
vt 0.539193 0.450196
vt 0.579219 0.447413
vt 0.504684 0.408137
vt 0.494556 0.434956
vt 0.490625 0.415405
vt 0.477535 0.442060
vt 0.588034 0.538707
vt 0.541414 0.539204
vt 0.494387 0.538609
vt 0.477205 0.537566
vt 0.539463 0.536374
vt 0.579882 0.536782
vt 0.603124 0.441225
vt 0.604086 0.537688
vt 0.507807 0.421581
vt 0.499904 0.447903
vt 0.589625 0.414537
vt 0.394894 0.588710
vt 0.441987 0.588221
vt 0.441433 0.612810
vt 0.400722 0.612276
vt 0.596115 0.559729
vt 0.581660 0.562197
vt 0.486347 0.589012
vt 0.479987 0.611942
vt 0.379191 0.589828
vt 0.386389 0.611028
vt 0.499810 0.536710
vt 0.500635 0.561961
vt 0.485168 0.559428
vt 0.541341 0.563384
vt 0.498636 0.590178
vt 0.491473 0.610630
vt 0.513542 0.445317
vt 0.480972 0.444451
vt 0.480503 0.423871
vt 0.529166 0.425166
vt 0.449009 0.445402
vt 0.434499 0.447358
vt 0.411068 0.428214
vt 0.432747 0.425293
vt 0.491563 0.571704
vt 0.458514 0.571704
vt 0.442184 0.552030
vt 0.491563 0.552030
vt 0.529343 0.447233
vt 0.552775 0.428028
vt 0.442184 0.453145
vt 0.491563 0.453145
vt 0.529166 0.328792
vt 0.552775 0.331654
vt 0.418991 0.552030
vt 0.418991 0.453145
vt 0.540941 0.552030
vt 0.540941 0.453145
vt 0.540135 0.571704
vt 0.524612 0.571704
vt 0.564135 0.552030
vt 0.442991 0.571704
vt 0.450547 0.413299
vt 0.463655 0.413299
vt 0.491563 0.413299
vt 0.519471 0.413299
vt 0.480503 0.327497
vt 0.432747 0.328919
vt 0.454129 0.291314
vt 0.481120 0.290511
vt 0.564135 0.453145
vt 0.532579 0.413299
vt 0.411068 0.331841
vt 0.500000 0.500000
vt 0.595173 0.500000
vt 0.564756 0.435244
vt 0.500000 0.404827
vt 0.404827 0.500000
vt 0.435244 0.435244
vt 0.435244 0.564756
vt 0.500000 0.595173
vt 0.564756 0.564756
vt 0.508623 0.291243
vt 0.521966 0.292860
vt 0.441876 0.292966
vn -0.4094 0.0000 0.9123
vn -0.8974 0.0000 -0.4412
vn 0.4094 0.0000 -0.9123
vn 0.8974 0.0000 0.4412
vn -0.4094 0.0000 -0.9123
vn 0.4094 0.0000 0.9123
vn 0.8974 0.0000 -0.4412
vn -0.8974 0.0000 0.4412
vn 0.5401 0.7986 0.2655
vn 0.2510 0.7901 -0.5593
vn -0.2510 0.7901 -0.5593
vn 0.5401 0.7986 -0.2655
vn 0.0000 1.0000 0.0000
vn -0.5401 0.7986 0.2655
vn 0.2510 0.7901 0.5593
vn -0.5401 0.7986 -0.2655
vn -0.2510 0.7901 0.5593
vn -0.3768 -0.3910 -0.8397
vn -0.3768 -0.3910 0.8397
vn 0.3768 -0.3910 -0.8397
vn 0.8222 -0.4007 -0.4042
vn 0.3768 -0.3910 0.8397
vn -0.8222 -0.4007 0.4042
vn -0.8222 -0.4007 -0.4042
vn 0.8222 -0.4007 0.4042
vn -0.3897 0.3070 0.8683
vn -0.8517 0.3152 -0.4187
vn 0.3897 0.3070 0.8683
vn -0.8517 0.3152 0.4187
vn 0.8517 0.3152 -0.4187
vn -0.3897 0.3070 -0.8683
vn 0.3897 0.3070 -0.8683
vn 0.8517 0.3152 0.4187
vn -0.2805 0.7285 -0.6250
vn 0.6053 0.7383 -0.2976
vn -0.2805 0.7285 0.6250
vn -0.6053 0.7383 -0.2976
vn 0.6053 0.7383 0.2976
vn 0.2805 0.7285 -0.6250
vn 0.2805 0.7285 0.6250
vn -0.6053 0.7383 0.2976
vn -0.7315 -0.5793 0.3596
vn 0.3369 -0.5681 0.7508
vn 0.3369 -0.5681 -0.7508
vn 0.7315 -0.5793 0.3596
vn 0.0000 -1.0000 0.0000
vn -0.7315 -0.5793 -0.3596
vn -0.3369 -0.5681 0.7508
vn 0.7315 -0.5793 -0.3596
vn -0.3369 -0.5681 -0.7508
usemtl Material
s off
f 11/1/1 10/2/1 7/3/1 8/4/1
f 13/5/2 15/6/2 5/7/2 6/8/2
f 9/9/3 2/10/3 66/11/3 61/12/3
f 16/13/4 14/14/4 3/15/4 4/16/4
f 9/9/3 12/17/3 1/18/3 2/10/3
f 6/8/5 5/7/5 12/17/5 9/9/5
f 16/13/4 4/16/4 64/19/4 65/20/4
f 4/16/6 3/15/6 10/2/6 11/1/6
f 11/1/1 8/4/1 60/21/1 63/22/1
f 2/10/7 1/18/7 14/23/7 16/24/7
f 13/5/2 6/8/2 62/25/2 59/26/2
f 8/4/8 7/3/8 15/27/8 13/28/8
f 27/29/6 38/30/6 46/31/6 35/32/6
f 39/33/8 36/34/8 44/35/8 47/36/8
f 38/30/4 37/37/4 45/38/4 46/31/4
f 42/39/3 41/40/3 49/41/3 50/42/3
f 46/43/9 45/44/9 52/45/9 53/46/9
f 50/47/10 49/48/10 56/49/10 57/50/10
f 49/48/11 48/51/11 55/52/11 56/49/11
f 45/44/12 50/47/12 57/50/12 52/45/12
f 40/53/2 39/33/2 47/36/2 48/54/2
f 36/55/1 27/29/1 35/32/1 44/56/1
f 37/37/7 42/39/7 50/42/7 45/38/7
f 41/40/5 40/53/5 48/54/5 49/41/5
f 58/57/13 54/58/13 51/59/13 43/60/13
f 52/45/13 58/57/13 43/60/13 53/46/13
f 57/50/13 56/49/13 58/57/13 52/45/13
f 56/49/13 55/52/13 54/58/13 58/57/13
f 47/61/14 44/62/14 51/59/14 54/58/14
f 35/63/15 46/43/15 53/46/15 43/60/15
f 48/51/16 47/61/16 54/58/16 55/52/16
f 44/62/17 35/63/17 43/60/17 51/59/17
f 6/8/5 9/9/5 61/12/5 62/25/5
f 4/16/6 11/1/6 63/22/6 64/19/6
f 8/4/8 13/28/8 59/64/8 60/21/8
f 2/10/7 16/24/7 65/65/7 66/11/7
usemtl Material.001
f 12/66/18 5/67/18 24/68/18 25/69/18
f 7/70/19 10/71/19 19/72/19 20/73/19
f 1/74/20 12/66/20 25/69/20 26/75/20
f 14/76/21 1/74/21 26/75/21 21/77/21
f 25/69/5 24/68/5 32/78/5 33/79/5
f 21/77/7 26/75/7 34/80/7 29/81/7
f 20/73/1 19/72/1 18/82/1 28/83/1
f 24/68/2 23/84/2 31/85/2 32/78/2
f 10/71/22 3/86/22 22/87/22 19/72/22
f 15/88/23 7/70/23 20/73/23 23/84/23
f 5/67/24 15/88/24 23/84/24 24/68/24
f 3/86/25 14/76/25 21/77/25 22/87/25
f 28/89/26 18/90/26 27/91/26 36/92/26
f 32/78/27 31/85/27 39/93/27 40/94/27
f 18/90/28 30/95/28 38/96/28 27/91/28
f 31/97/29 28/89/29 36/92/29 39/98/29
f 26/75/3 25/69/3 33/79/3 34/80/3
f 22/87/4 21/77/4 29/81/4 30/99/4
f 23/84/8 20/73/8 28/83/8 31/85/8
f 19/72/6 22/87/6 30/99/6 18/82/6
f 29/81/30 34/80/30 42/100/30 37/101/30
f 33/79/31 32/78/31 40/94/31 41/102/31
f 34/80/32 33/79/32 41/102/32 42/100/32
f 30/95/33 29/103/33 37/104/33 38/96/33
f 62/105/34 61/106/34 69/107/34 70/108/34
f 66/109/35 65/110/35 73/111/35 74/112/35
f 63/113/36 60/114/36 68/115/36 71/116/36
f 59/117/37 62/105/37 70/108/37 17/118/37
f 71/116/1 68/115/1 75/119/1 78/120/1
f 17/118/2 70/108/2 77/121/2 67/122/2
f 68/115/8 17/123/8 67/124/8 75/119/8
f 72/125/6 71/116/6 78/120/6 79/126/6
f 65/127/38 64/128/38 72/125/38 73/129/38
f 61/106/39 66/109/39 74/112/39 69/107/39
f 64/128/40 63/113/40 71/116/40 72/125/40
f 60/114/41 59/130/41 17/123/41 68/115/41
f 75/119/42 67/124/42 82/131/42 83/132/42
f 79/126/43 78/120/43 86/133/43 87/134/43
f 76/135/44 81/136/44 89/137/44 84/138/44
f 80/139/45 79/126/45 87/134/45 88/140/45
f 74/112/7 73/111/7 80/141/7 81/136/7
f 70/108/5 69/107/5 76/135/5 77/121/5
f 73/129/4 72/125/4 79/126/4 80/139/4
f 69/107/3 74/112/3 81/136/3 76/135/3
f 90/142/46 88/143/46 87/144/46 86/145/46
f 82/146/46 90/142/46 86/145/46 83/147/46
f 85/148/46 84/149/46 90/142/46 82/146/46
f 84/149/46 89/150/46 88/143/46 90/142/46
f 67/122/47 77/121/47 85/151/47 82/152/47
f 78/120/48 75/119/48 83/132/48 86/133/48
f 81/136/49 80/141/49 88/153/49 89/137/49
f 77/121/50 76/135/50 84/138/50 85/151/50
o Cube.001
v -0.508859 3.133924 0.138786
v -0.558664 3.559680 0.138786
v -0.508859 3.133924 -0.138786
v -0.558664 3.559680 -0.138786
v -0.250374 3.132473 0.138786
v -0.250374 3.561131 0.138786
v -0.250374 3.132473 -0.138786
v -0.250374 3.561131 -0.138786
v -0.533761 3.346802 0.138786
v -0.533761 3.346802 -0.138786
v -0.250374 3.346802 -0.138786
v -0.250374 3.346802 0.138786
v -0.486638 2.943974 -0.000000
v -0.580885 3.749629 -0.000000
v -0.250374 2.941227 -0.000000
v -0.250374 3.752376 -0.000000
v -0.250374 3.346802 -0.000000
v -2.734523 2.219143 -0.000000
v -1.590412 2.676011 -0.000000
v -1.642917 2.812718 0.106274
v -1.701759 2.965927 0.106274
v -1.760602 3.119136 0.106274
v -1.813106 3.255843 -0.000000
v -1.760602 3.119136 -0.106274
v -1.701759 2.965927 -0.106274
v -1.642917 2.812718 -0.106274
v -2.754995 2.272446 0.041437
v -2.777938 2.332184 0.041437
v -2.800881 2.391921 0.041437
v -2.821353 2.445224 -0.000000
v -2.800881 2.391921 -0.041437
v -2.777938 2.332184 -0.041437
v -2.754995 2.272446 -0.041437
v -2.777938 2.332184 -0.000000
v 0.508859 3.133924 0.138786
v 0.558664 3.559680 0.138786
v 0.508859 3.133924 -0.138786
v 0.558664 3.559680 -0.138786
v 0.250374 3.132473 0.138786
v 0.250374 3.561131 0.138786
v 0.250374 3.132473 -0.138786
v 0.250374 3.561131 -0.138786
v 0.533761 3.346802 0.138786
v 0.533761 3.346802 -0.138786
v 0.250374 3.346802 -0.138786
v 0.250374 3.346802 0.138786
v 0.486638 2.943974 -0.000000
v 0.580885 3.749629 -0.000000
v 0.250374 2.941227 -0.000000
v 0.250374 3.752376 -0.000000
v 0.250374 3.346802 -0.000000
v 2.734522 2.219143 -0.000000
v 1.590412 2.676011 -0.000000
v 1.642917 2.812718 0.106274
v 1.701759 2.965927 0.106274
v 1.760602 3.119136 0.106274
v 1.813106 3.255843 -0.000000
v 1.760602 3.119136 -0.106274
v 1.701759 2.965927 -0.106274
v 1.642917 2.812718 -0.106274
v 2.754995 2.272446 0.041437
v 2.777938 2.332184 0.041437
v 2.800881 2.391921 0.041437
v 2.821353 2.445224 -0.000000
v 2.800881 2.391921 -0.041437
v 2.777938 2.332184 -0.041437
v 2.754995 2.272446 -0.041437
v 2.777938 2.332184 -0.000000
vt 0.736066 0.847076
vt 0.736217 0.833596
vt 0.823421 0.812297
vt 0.828875 0.821165
vt 0.737943 0.864518
vt 0.739836 0.882103
vt 0.714412 0.882232
vt 0.714670 0.864553
vt 0.500000 0.625000
vt 0.625000 0.625000
vt 0.625000 0.750000
vt 0.500000 0.750000
vt 0.441380 0.855744
vt 0.441756 0.877069
vt 0.411318 0.876954
vt 0.413528 0.855701
vt 0.414679 0.817979
vt 0.436848 0.817857
vt 0.441008 0.834600
vt 0.415718 0.834639
vt 0.438151 0.895203
vt 0.406620 0.895037
vt 0.375000 0.625000
vt 0.375000 0.750000
vt 0.714925 0.847015
vt 0.303544 0.802908
vt 0.309723 0.791922
vt 0.743123 0.897534
vt 0.838837 0.845938
vt 0.841745 0.857917
vt 0.375000 0.500000
vt 0.500000 0.500000
vt 0.716741 0.897736
vt 0.717642 0.833449
vt 0.625000 0.500000
vt 0.833840 0.833512
vt 0.297532 0.817889
vt 0.291475 0.832981
vt 0.191093 0.762612
vt 0.193556 0.756932
vt 0.916729 0.779277
vt 0.918727 0.783934
vt 0.920730 0.788602
vt 0.913588 0.776312
vt 0.287565 0.847192
vt 0.500000 0.125000
vt 0.625000 0.125000
vt 0.625000 0.250000
vt 0.500000 0.250000
vt 0.375000 0.125000
vt 0.375000 0.250000
vt 0.375000 0.000000
vt 0.500000 0.000000
vt 0.625000 0.000000
vt 0.190592 0.768844
vt 0.196012 0.751269
vt 0.921074 0.793776
vt 0.199786 0.747617
vt 0.736066 0.847076
vt 0.828875 0.821165
vt 0.823421 0.812297
vt 0.736217 0.833596
vt 0.737943 0.864518
vt 0.714670 0.864553
vt 0.714412 0.882232
vt 0.739836 0.882103
vt 0.500000 0.625000
vt 0.500000 0.750000
vt 0.625000 0.750000
vt 0.625000 0.625000
vt 0.441380 0.855744
vt 0.413528 0.855701
vt 0.411318 0.876954
vt 0.441756 0.877069
vt 0.414679 0.817979
vt 0.415718 0.834639
vt 0.441008 0.834600
vt 0.436848 0.817857
vt 0.438151 0.895203
vt 0.406620 0.895037
vt 0.375000 0.625000
vt 0.375000 0.750000
vt 0.714925 0.847015
vt 0.309723 0.791922
vt 0.303544 0.802908
vt 0.743123 0.897534
vt 0.841745 0.857917
vt 0.838837 0.845938
vt 0.375000 0.500000
vt 0.500000 0.500000
vt 0.716741 0.897736
vt 0.717642 0.833449
vt 0.625000 0.500000
vt 0.833840 0.833512
vt 0.297532 0.817889
vt 0.193556 0.756932
vt 0.191093 0.762612
vt 0.291475 0.832981
vt 0.918727 0.783934
vt 0.916729 0.779277
vt 0.920730 0.788602
vt 0.913588 0.776312
vt 0.287565 0.847192
vt 0.500000 0.125000
vt 0.500000 0.250000
vt 0.625000 0.250000
vt 0.625000 0.125000
vt 0.375000 0.125000
vt 0.375000 0.250000
vt 0.375000 0.000000
vt 0.500000 0.000000
vt 0.625000 0.000000
vt 0.190592 0.768844
vt 0.196012 0.751269
vt 0.921074 0.793776
vt 0.199786 0.747617
vn 0.1393 -0.5737 -0.8072
vn 0.0000 0.0000 -1.0000
vn 1.0000 0.0000 0.0000
vn 0.0000 0.0000 1.0000
vn -0.0050 -0.5888 0.8082
vn -0.0039 0.5885 0.8085
vn 0.1393 -0.5737 0.8072
vn -0.2226 0.5520 -0.8036
vn -0.0039 0.5885 -0.8085
vn -0.0050 -0.5888 -0.8082
vn -0.0254 -0.0058 -0.9997
vn -0.0491 -0.0188 0.9986
vn -0.0491 -0.0188 -0.9986
vn 0.2178 -0.5455 -0.8093
vn -0.0264 -0.0060 -0.9996
vn -0.0264 -0.0060 0.9996
vn -0.0254 -0.0058 0.9997
vn -0.2226 0.5520 0.8036
vn -0.9335 -0.3585 -0.0000
vn -0.3798 0.4724 0.7953
vn -0.3798 0.4724 -0.7953
vn 0.2178 -0.5455 0.8093
vn -0.1393 -0.5737 -0.8072
vn -1.0000 0.0000 0.0000
vn 0.0050 -0.5888 0.8082
vn 0.0039 0.5885 0.8085
vn -0.1393 -0.5737 0.8072
vn 0.2226 0.5520 -0.8036
vn 0.0039 0.5885 -0.8085
vn 0.0050 -0.5888 -0.8082
vn 0.0254 -0.0058 -0.9997
vn 0.0491 -0.0188 0.9986
vn 0.0491 -0.0188 -0.9986
vn -0.2178 -0.5455 -0.8093
vn 0.0264 -0.0060 -0.9996
vn 0.0264 -0.0060 0.9996
vn 0.0254 -0.0058 0.9997
vn 0.2226 0.5520 0.8036
vn 0.9335 -0.3585 0.0000
vn 0.3798 0.4724 0.7953
vn 0.3798 0.4724 -0.7953
vn -0.2178 -0.5455 0.8093
usemtl Material.002
s off
f 93/154/51 103/155/51 109/156/51 116/157/51
f 100/158/52 94/159/52 98/160/52 101/161/52
f 107/162/53 106/163/53 96/164/53 102/165/53
f 102/166/54 96/167/54 92/168/54 99/169/54
f 103/170/55 105/171/55 95/172/55 91/173/55
f 106/174/56 104/175/56 92/168/56 96/167/56
f 95/172/54 102/166/54 99/169/54 91/173/54
f 105/176/53 107/162/53 102/165/53 95/177/53
f 93/154/52 100/158/52 101/161/52 97/178/52
f 103/170/57 91/173/57 110/179/57 109/180/57
f 104/181/58 94/159/58 114/182/58 113/183/58
f 97/184/53 101/185/53 107/162/53 105/176/53
f 98/160/59 94/159/59 104/181/59 106/186/59
f 93/154/60 97/178/60 105/187/60 103/155/60
f 101/185/53 98/188/53 106/163/53 107/162/53
f 94/159/61 100/158/61 115/189/61 114/182/61
f 111/190/62 112/191/62 119/192/62 118/193/62
f 115/189/63 116/157/63 123/194/63 122/195/63
f 114/182/63 115/189/63 122/195/63 121/196/63
f 116/157/64 109/156/64 108/197/64 123/194/64
f 100/158/65 93/154/65 116/157/65 115/189/65
f 91/173/66 99/169/66 111/190/66 110/179/66
f 99/169/67 92/168/67 112/191/67 111/190/67
f 92/168/68 104/175/68 113/198/68 112/191/68
f 124/199/69 120/200/69 121/201/69 122/202/69
f 108/203/69 124/199/69 122/202/69 123/204/69
f 117/205/69 118/206/69 124/199/69 108/203/69
f 118/206/69 119/207/69 120/200/69 124/199/69
f 112/191/70 113/198/70 120/208/70 119/192/70
f 110/179/62 111/190/62 118/193/62 117/209/62
f 113/183/71 114/182/71 121/196/71 120/210/71
f 109/180/72 110/179/72 117/209/72 108/211/72
f 127/212/73 150/213/73 143/214/73 137/215/73
f 134/216/52 135/217/52 132/218/52 128/219/52
f 141/220/74 136/221/74 130/222/74 140/223/74
f 136/224/54 133/225/54 126/226/54 130/227/54
f 137/228/75 125/229/75 129/230/75 139/231/75
f 140/232/76 130/227/76 126/226/76 138/233/76
f 129/230/54 125/229/54 133/225/54 136/224/54
f 139/234/74 129/235/74 136/221/74 141/220/74
f 127/212/52 131/236/52 135/217/52 134/216/52
f 137/228/77 143/237/77 144/238/77 125/229/77
f 138/239/78 147/240/78 148/241/78 128/219/78
f 131/242/74 139/234/74 141/220/74 135/243/74
f 132/218/79 140/244/79 138/239/79 128/219/79
f 127/212/80 137/215/80 139/245/80 131/236/80
f 135/243/74 141/220/74 140/223/74 132/246/74
f 128/219/81 148/241/81 149/247/81 134/216/81
f 145/248/82 152/249/82 153/250/82 146/251/82
f 149/247/83 156/252/83 157/253/83 150/213/83
f 148/241/83 155/254/83 156/252/83 149/247/83
f 150/213/84 157/253/84 142/255/84 143/214/84
f 134/216/85 149/247/85 150/213/85 127/212/85
f 125/229/86 144/238/86 145/248/86 133/225/86
f 133/225/87 145/248/87 146/251/87 126/226/87
f 126/226/88 146/251/88 147/256/88 138/233/88
f 158/257/89 156/258/89 155/259/89 154/260/89
f 142/261/89 157/262/89 156/258/89 158/257/89
f 151/263/89 142/261/89 158/257/89 152/264/89
f 152/264/89 158/257/89 154/260/89 153/265/89
f 146/251/90 153/250/90 154/266/90 147/256/90
f 144/238/82 151/267/82 152/249/82 145/248/82
f 147/240/91 154/268/91 155/254/91 148/241/91
f 143/237/92 142/269/92 151/267/92 144/238/92
