# Blender v3.0.0 OBJ File: 'refinery.blend'
# www.blender.org
mtllib refinery.mtl
o Cube
v 1.186151 0.689936 -1.597949
v 1.186151 -0.534136 -1.597949
v 1.165553 0.687899 1.597949
v 1.165553 -0.524860 1.597949
v -1.186151 0.689936 -1.597949
v -1.186151 -0.534136 -1.597949
v -1.165553 0.687899 1.597949
v -1.165553 -0.524860 1.597949
v 0.000000 -0.534136 -1.597949
v 0.000000 1.320007 1.597949
v 0.000000 -0.524860 1.597949
v 0.000000 1.329283 -1.597949
v 1.186151 0.000000 -1.597949
v -1.165553 0.000000 1.597949
v 1.165553 0.000000 1.597949
v -1.186151 0.000000 -1.597949
v 0.814741 -0.524860 1.597949
v 0.531050 1.329283 -1.597949
v 0.814741 -0.534136 -1.597949
v 0.517869 1.320007 1.597949
v -0.814741 -0.534136 -1.597949
v -0.517869 1.320007 1.597949
v -0.814741 -0.524860 1.597949
v -0.531050 1.329283 -1.597949
v -1.629482 -0.733772 0.000000
v 1.629482 0.733772 0.000000
v -1.629482 0.733772 0.000000
v 1.629482 -0.733772 0.000000
v 0.000000 -0.733772 0.000000
v 0.000000 1.528919 0.000000
v 1.629482 0.000000 0.000000
v -1.629482 0.000000 0.000000
v 0.814741 1.528919 0.000000
v 0.814741 -0.733772 0.000000
v -0.814741 -0.733772 0.000000
v -0.814741 1.528919 0.000000
v -1.629482 0.000000 1.597949
v -1.629482 0.733772 1.597949
v 1.629482 0.000000 1.597949
v 1.629482 -0.733772 1.597949
v -0.814741 1.528919 1.597949
v 0.814741 -0.733772 1.597949
v 0.814741 1.528919 1.597949
v 0.000000 1.528919 1.597949
v -0.814741 -0.733772 1.597949
v 0.000000 -0.733772 1.597949
v -1.629482 -0.733772 1.597949
v 1.629482 0.733772 1.597949
v 0.000000 0.000000 1.175442
v 0.000000 -0.524860 1.175442
v 0.000000 1.320007 1.175442
v 0.814741 0.000000 1.175442
v -0.814741 0.000000 1.175442
v -1.165553 0.000000 1.175442
v 1.165553 0.000000 1.175442
v 0.814741 -0.524860 1.175442
v 0.517869 1.320007 1.175442
v -0.814741 -0.524860 1.175442
v -0.517869 1.320007 1.175442
v -1.165553 0.687899 1.175442
v 1.165553 -0.524860 1.175442
v -1.165553 -0.524860 1.175442
v 1.165553 0.687899 1.175442
v -0.814741 -0.733772 -1.597949
v -1.629482 -0.733772 -1.597949
v 1.629482 0.000000 -1.597949
v 1.629482 -0.733772 -1.597949
v -1.629482 0.000000 -1.597949
v 0.814741 1.528919 -1.597949
v 1.629482 0.733772 -1.597949
v 0.814741 -0.733772 -1.597949
v 0.000000 -0.733772 -1.597949
v -0.814741 1.528919 -1.597949
v 0.000000 1.528919 -1.597949
v -1.629482 0.733772 -1.597949
v 0.000000 0.000000 -1.419347
v 0.000000 -0.534136 -1.419347
v 0.000000 1.329283 -1.419347
v -0.814741 0.000000 -1.419347
v 0.814741 0.000000 -1.419347
v 1.186151 0.000000 -1.419347
v 0.814741 -0.534136 -1.419347
v 0.531050 1.329283 -1.419347
v -1.186151 0.000000 -1.419347
v -0.814741 -0.534136 -1.419347
v -0.531050 1.329283 -1.419347
v -1.186151 -0.534136 -1.419347
v 1.186151 -0.534136 -1.419347
v 1.186151 0.689936 -1.419347
v -1.186151 0.689936 -1.419347
vt 0.812500 0.625000
vt 0.875000 0.625000
vt 0.875000 0.750000
vt 0.812500 0.750000
vt 0.500000 0.785589
vt 0.579823 0.785589
vt 0.579823 0.785589
vt 0.500000 0.785589
vt 0.500000 0.125000
vt 0.625000 0.125000
vt 0.625000 0.250000
vt 0.500000 0.250000
vt 0.246094 0.183594
vt 0.308594 0.183594
vt 0.308594 0.308594
vt 0.246094 0.308594
vt 0.301503 0.654732
vt 0.303228 0.750302
vt 0.034641 0.752881
vt 0.045115 0.657845
vt 0.500000 0.465991
vt 0.409009 0.465991
vt 0.409009 0.465991
vt 0.500000 0.465991
vt 0.581555 0.284009
vt 0.588227 0.334262
vt 0.588227 0.334262
vt 0.581555 0.284009
vt 0.121094 0.183594
vt 0.183594 0.183594
vt 0.183594 0.308594
vt 0.121094 0.308594
vt 0.579823 0.964411
vt 0.500000 0.964411
vt 0.500000 0.964411
vt 0.579823 0.964411
vt 0.687500 0.625000
vt 0.750000 0.625000
vt 0.750000 0.750000
vt 0.687500 0.750000
vt 0.607920 0.875000
vt 0.607920 0.914726
vt 0.607920 0.914726
vt 0.607920 0.875000
vt 0.409009 0.437500
vt 0.409009 0.375000
vt 0.409009 0.375000
vt 0.409009 0.437500
vt 0.500000 0.284009
vt 0.500000 0.284009
vt 0.392995 0.339891
vt 0.394892 0.444953
vt 0.086051 0.448702
vt 0.097572 0.344161
vt 0.375000 0.125000
vt 0.375000 0.250000
vt 0.410589 0.812500
vt 0.410589 0.785589
vt 0.410589 0.785589
vt 0.410589 0.812500
vt 0.409009 0.312500
vt 0.409009 0.284009
vt 0.409009 0.284009
vt 0.409009 0.312500
vt 0.410589 0.964411
vt 0.410589 0.964411
vt 0.302642 0.934290
vt 0.046620 0.935498
vt 0.586570 0.835274
vt 0.586570 0.835274
vt 0.608678 0.415738
vt 0.581555 0.465991
vt 0.581555 0.465991
vt 0.608678 0.415738
vt 0.058594 0.183594
vt 0.058594 0.308594
vt 0.410589 0.937500
vt 0.410589 0.875000
vt 0.410589 0.875000
vt 0.410589 0.937500
vt 0.750000 0.500000
vt 0.812500 0.500000
vt 0.058594 0.058594
vt 0.121094 0.058594
vt 0.183594 0.058594
vt 0.246094 0.058594
vt 0.575701 0.747686
vt 0.562192 0.933066
vt 0.375000 0.000000
vt 0.500000 0.000000
vt 0.491143 0.335565
vt 0.506821 0.441152
vt 0.687500 0.500000
vt 0.561430 0.651577
vt 0.308594 0.058594
vt 0.625000 0.000000
vt 0.875000 0.500000
vt 0.625000 1.000000
vt 0.500000 1.000000
vt 0.375000 0.750000
vt 0.500000 0.750000
vt 0.625000 0.937500
vt 0.375000 0.812500
vt 0.625000 0.812500
vt 0.625000 0.875000
vt 0.375000 0.937500
vt 0.375000 0.875000
vt 0.375000 1.000000
vt 0.625000 0.750000
vt 0.297579 0.412093
vt 0.326840 0.405919
vt 0.319221 0.419390
vt 0.297579 0.419390
vt 0.297579 0.378201
vt 0.321051 0.384376
vt 0.326840 0.395147
vt 0.297579 0.395147
vt 0.273336 0.378201
vt 0.273336 0.395147
vt 0.273336 0.412093
vt 0.273336 0.419390
vt 0.273336 0.370905
vt 0.297579 0.370905
vt 0.319221 0.370905
vt 0.375000 0.312500
vt 0.500000 0.500000
vt 0.375000 0.500000
vt 0.625000 0.437500
vt 0.625000 0.500000
vt 0.436077 0.264265
vt 0.436077 0.326765
vt 0.402069 0.326765
vt 0.402069 0.264265
vt 0.608678 0.375000
vt 0.625000 0.312500
vt 0.625000 0.375000
vt 0.375000 0.437500
vt 0.436077 0.201765
vt 0.402069 0.201765
vt 0.345950 0.379245
vt 0.349729 0.378488
vt 0.348786 0.380235
vt 0.345950 0.380235
vt 0.345950 0.374899
vt 0.349018 0.375656
vt 0.349729 0.377072
vt 0.345950 0.377072
vt 0.331075 0.375253
vt 0.347205 0.375253
vt 0.347205 0.377819
vt 0.331075 0.377819
vt 0.342787 0.379245
vt 0.342787 0.380235
vt 0.347205 0.380385
vt 0.331075 0.380385
vt 0.342787 0.373908
vt 0.345950 0.373908
vt 0.342787 0.374899
vt 0.348786 0.373908
vt 0.608678 0.375000
vn -0.6984 0.7157 0.0000
vn -1.0000 0.0000 0.0000
vn 0.0000 -1.0000 0.0000
vn 1.0000 0.0000 0.0000
vn 0.6984 -0.7157 0.0000
vn 0.0000 1.0000 0.0000
vn 0.6984 0.7157 0.0000
vn -0.6984 -0.7157 0.0000
vn 0.0000 0.0000 1.0000
vn 0.0000 0.0000 -1.0000
usemtl Material
s off
f 36/1/1 27/2/1 38/3/1 41/4/1
f 15/5/2 3/6/2 63/7/2 55/8/2
f 32/9/2 27/10/2 75/11/2 68/12/2
f 34/13/3 28/14/3 40/15/3 42/16/3
f 31/17/4 26/18/4 48/19/4 39/20/4
f 13/21/2 2/22/2 88/23/2 81/24/2
f 5/25/5 24/26/5 86/27/5 90/28/5
f 35/29/3 29/30/3 46/31/3 45/32/3
f 7/33/4 14/34/4 54/35/4 60/36/4
f 33/37/6 30/38/6 44/39/6 43/40/6
f 10/41/3 22/42/3 59/43/3 51/44/3
f 19/45/6 9/46/6 77/47/6 82/48/6
f 16/49/4 5/25/4 90/28/4 84/50/4
f 28/51/4 31/52/4 39/53/4 40/54/4
f 25/55/2 32/9/2 68/12/2 65/56/2
f 17/57/6 4/58/6 61/59/6 56/60/6
f 21/61/6 6/62/6 87/63/6 85/64/6
f 14/34/4 8/65/4 62/66/4 54/35/4
f 26/18/7 33/67/7 43/68/7 48/19/7
f 3/6/8 20/69/8 57/70/8 63/7/8
f 9/46/6 21/61/6 85/64/6 77/47/6
f 29/30/3 34/13/3 42/16/3 46/31/3
f 22/42/5 7/33/5 60/36/5 59/43/5
f 18/71/8 1/72/8 89/73/8 83/74/8
f 25/75/3 35/29/3 45/32/3 47/76/3
f 1/72/2 13/21/2 81/24/2 89/73/2
f 23/77/6 11/78/6 50/79/6 58/80/6
f 30/38/6 36/1/6 41/4/6 44/39/6
f 74/81/6 73/82/6 36/1/6 30/38/6
f 65/83/3 64/84/3 35/29/3 25/75/3
f 72/85/3 71/86/3 34/13/3 29/30/3
f 70/87/7 69/88/7 33/67/7 26/18/7
f 47/89/2 37/90/2 32/9/2 25/55/2
f 67/91/4 66/92/4 31/52/4 28/51/4
f 69/93/6 74/81/6 30/38/6 33/37/6
f 64/84/3 72/85/3 29/30/3 35/29/3
f 66/94/4 70/87/4 26/18/4 31/17/4
f 71/86/3 67/95/3 28/14/3 34/13/3
f 37/90/2 38/96/2 27/10/2 32/9/2
f 73/82/1 75/97/1 27/2/1 36/1/1
f 14/34/9 7/33/9 38/98/9 37/99/9
f 15/5/9 4/58/9 40/100/9 39/101/9
f 7/33/9 22/42/9 41/102/9 38/98/9
f 4/58/9 17/57/9 42/103/9 40/100/9
f 10/41/9 20/69/9 43/104/9 44/105/9
f 11/78/9 23/77/9 45/106/9 46/107/9
f 8/65/9 14/34/9 37/99/9 47/108/9
f 3/6/9 15/5/9 39/101/9 48/109/9
f 17/57/9 11/78/9 46/107/9 42/103/9
f 20/69/9 3/6/9 48/109/9 43/104/9
f 22/42/9 10/41/9 44/105/9 41/102/9
f 23/77/9 8/65/9 47/108/9 45/106/9
f 53/110/9 59/111/9 60/112/9 54/113/9
f 52/114/9 57/115/9 51/116/9 49/117/9
f 56/118/9 52/114/9 49/117/9 50/119/9
f 58/120/9 53/110/9 54/113/9 62/121/9
f 61/122/9 55/123/9 52/114/9 56/118/9
f 55/123/9 63/124/9 57/115/9 52/114/9
f 50/119/9 49/117/9 53/110/9 58/120/9
f 49/117/9 51/116/9 59/111/9 53/110/9
f 20/69/3 10/41/3 51/44/3 57/70/3
f 8/65/6 23/77/6 58/80/6 62/66/6
f 4/58/2 15/5/2 55/8/2 61/59/2
f 11/78/6 17/57/6 56/60/6 50/79/6
f 6/62/10 21/61/10 64/125/10 65/56/10
f 2/22/10 13/21/10 66/126/10 67/127/10
f 16/49/10 6/62/10 65/56/10 68/12/10
f 1/72/10 18/71/10 69/128/10 70/129/10
f 9/130/10 19/131/10 71/132/10 72/133/10
f 12/134/10 24/26/10 73/135/10 74/136/10
f 13/21/10 1/72/10 70/129/10 66/126/10
f 5/25/10 16/49/10 68/12/10 75/11/10
f 18/71/10 12/134/10 74/136/10 69/128/10
f 19/45/10 2/22/10 67/127/10 71/137/10
f 21/138/10 9/130/10 72/133/10 64/139/10
f 24/26/10 5/25/10 75/11/10 73/135/10
f 80/140/10 83/141/10 89/142/10 81/143/10
f 79/144/10 86/145/10 78/146/10 76/147/10
f 85/148/10 79/149/10 76/150/10 77/151/10
f 82/152/10 80/140/10 81/143/10 88/153/10
f 77/151/10 76/150/10 80/154/10 82/155/10
f 76/147/10 78/146/10 83/141/10 80/140/10
f 87/156/10 84/157/10 79/144/10 85/158/10
f 84/157/10 90/159/10 86/145/10 79/144/10
f 12/134/3 18/71/3 83/74/3 78/160/3
f 24/26/3 12/134/3 78/160/3 86/27/3
f 6/62/4 16/49/4 84/50/4 87/63/4
f 2/22/6 19/45/6 82/48/6 88/23/6
o Cube.001
v -1.363159 0.132134 4.886642
v -1.363159 0.311035 4.845440
v -1.249531 -0.707026 1.243012
v -1.249531 -0.528126 1.201810
v 1.397869 0.132134 4.886642
v 1.397869 0.311035 4.845440
v 1.284241 -0.707026 1.243012
v 1.284241 -0.528126 1.201810
v 0.017355 -0.707026 1.243012
v 0.017355 -0.528126 1.201810
v 0.017355 0.132134 4.886642
v 0.017355 0.311035 4.845440
v -0.672902 -0.707026 1.243012
v -0.672902 0.311035 4.845440
v -0.672902 -0.528126 1.201810
v -0.672902 0.132134 4.886642
v 0.707612 -0.528126 1.201810
v 0.707612 0.132134 4.886642
v 0.707612 -0.707026 1.243012
v 0.707612 0.311035 4.845440
v -0.961217 -0.707026 1.243012
v -1.018031 0.311035 4.845440
v -0.961217 -0.528126 1.201810
v -1.018031 0.132134 4.886642
v 0.990350 -0.528126 1.201810
v 1.046066 0.132134 4.886642
v 0.990350 -0.707026 1.243012
v 1.046066 0.311035 4.845440
v -1.306345 -0.287446 3.064827
v -1.306345 -0.108545 3.023625
v 1.341055 -0.287446 3.064827
v 1.341055 -0.108545 3.023625
v 0.017355 -0.108545 3.023625
v 0.017355 -0.287446 3.064827
v -0.672902 -0.287446 3.064827
v -0.672902 -0.108545 3.023625
v 0.707612 -0.108545 3.023625
v 0.707612 -0.287446 3.064827
v -0.989624 -0.287446 3.064827
v -0.989624 -0.108545 3.023625
v 1.018208 -0.108545 3.023625
v 1.018208 -0.287446 3.064827
v -1.334752 -0.077656 3.975735
v 1.369462 0.101245 3.934533
v 0.017355 0.101245 3.934533
v 0.017355 -0.077656 3.975735
v -0.672902 -0.077656 3.975735
v -0.672902 0.101245 3.934533
v 0.707612 0.101245 3.934533
v 0.707612 -0.077656 3.975735
v -1.003827 -0.077656 3.975735
v -1.003827 0.101245 3.934533
v 1.032137 0.101245 3.934533
v 1.032137 -0.077656 3.975735
v -1.334752 0.101245 3.934533
v 1.369462 -0.077656 3.975735
v -1.348956 0.027239 4.431189
v 1.383666 0.206140 4.389987
v 0.017355 0.206140 4.389987
v 0.017355 0.027239 4.431189
v -0.672902 0.027239 4.431189
v -0.672902 0.206140 4.389987
v 0.707612 0.206140 4.389987
v 0.707612 0.027239 4.431189
v -1.010929 0.027239 4.431189
v -1.010929 0.206140 4.389987
v 1.039101 0.206140 4.389987
v 1.039101 0.027239 4.431189
v -1.348956 0.206140 4.389987
v 1.383666 0.027239 4.431189
v -1.410372 0.664735 3.111867
v -1.349077 0.245155 1.290052
v 1.270703 0.245155 1.290052
v 1.384481 0.245155 1.290052
v 1.491745 0.979420 4.478229
v 1.507069 1.084315 4.933682
v -1.315645 1.084315 4.933682
v -1.471666 1.084315 4.933682
v 0.906599 1.084315 4.933682
v 0.017701 1.084315 4.933682
v 0.017701 0.979420 4.478229
v -0.871196 1.084315 4.933682
v -0.871196 0.979420 4.478229
v 1.342452 1.084315 4.933682
v 0.906599 0.979420 4.478229
v -1.242481 0.245155 1.290052
v -1.306499 0.979420 4.478229
v 1.333484 0.979420 4.478229
v -1.441019 0.874525 4.022775
v 1.445775 0.664735 3.111867
v -1.279063 0.664735 3.111867
v 1.306578 0.664735 3.111867
v 1.476422 0.874525 4.022775
v -1.297354 0.874525 4.022775
v 1.324515 0.874525 4.022775
v -1.456342 0.979420 4.478229
vt 0.408006 0.006964
vt 0.385945 0.096595
vt -0.472923 -0.062092
vt -0.447840 -0.144600
vt 0.375000 0.468146
vt 0.625000 0.468146
vt 0.625000 0.500000
vt 0.375000 0.500000
vt 0.192735 0.423941
vt 0.198406 0.454031
vt 0.119990 0.470599
vt 0.114545 0.440329
vt 0.253840 0.737828
vt 0.253585 0.776629
vt 0.180333 0.775513
vt 0.180419 0.736677
vt 0.429989 0.706916
vt 0.481408 0.705781
vt 0.487555 0.778056
vt 0.434514 0.779286
vt 0.326715 0.777744
vt 0.472612 0.779967
vt 0.473024 0.946391
vt 0.276935 0.943772
vt 0.182864 0.544140
vt 0.258426 0.548209
vt 0.255024 0.628233
vt 0.141811 0.623093
vt 0.173315 0.712586
vt 0.277042 0.710295
vt 0.278925 0.782894
vt 0.174114 0.785324
vt 0.619125 0.743556
vt 0.618029 0.782184
vt 0.473374 0.741270
vt 0.375000 0.312500
vt 0.625000 0.312500
vt 0.625000 0.375000
vt 0.375000 0.375000
vt 0.375000 0.281250
vt 0.625000 0.281250
vt 0.122400 0.713711
vt 0.121584 0.786542
vt 0.843750 0.718750
vt 0.843750 0.687500
vt 0.843750 0.687500
vt 0.843750 0.718750
vt 0.327139 0.738978
vt 0.690415 0.744673
vt 0.689156 0.783267
vt 0.276163 0.437603
vt 0.252640 0.569586
vt 0.172097 0.587158
vt 0.380446 0.708011
vt 0.383405 0.780471
vt 0.625000 0.437500
vt 0.375000 0.437500
vt 0.071406 0.714837
vt 0.068970 0.787762
vt 0.375000 0.250000
vt 0.625000 0.250000
vt 0.625000 0.468146
vt 0.625000 0.500000
vt 0.656854 0.500000
vt 0.656854 0.625000
vt 0.656854 0.625000
vt 0.656854 0.500000
vt 0.375000 0.750000
vt 0.625000 0.750000
vt 0.625000 0.781854
vt 0.375000 0.781854
vt 0.361328 0.239889
vt 0.400753 0.239298
vt 0.416958 0.498492
vt 0.371924 0.499345
vt 0.843750 0.625000
vt 0.843750 0.500000
vt 0.843750 0.500000
vt 0.843750 0.625000
vt -0.386165 0.048365
vt -0.375211 -0.107449
vt 0.621806 -0.094103
vt 0.610045 0.089593
vt 0.087131 0.244001
vt 0.127667 0.243393
vt 0.124748 0.504023
vt 0.078418 0.504900
vt 0.264882 0.241336
vt 0.271621 0.501243
vt -0.449782 0.953237
vt -0.438916 0.798691
vt 0.558464 0.895269
vt 0.546786 1.077661
vt -0.412479 0.422645
vt 0.584319 0.491414
vt 0.168153 0.242786
vt 0.171014 0.503147
vt 0.178564 0.942459
vt 0.143979 0.941997
vt 0.441682 0.238684
vt 0.463703 0.497607
vt 0.722192 0.312973
vt 0.729331 0.341859
vt 0.429735 0.405157
vt 0.423412 0.375594
vt 0.886178 0.091644
vt 0.866108 0.185312
vt 1.139582 0.136520
vt 1.120655 0.232343
vt 0.425557 0.636024
vt 0.377547 0.637033
vt 0.720932 0.467414
vt 0.411549 0.534915
vt 1.176913 -0.086672
vt 1.164855 0.112555
vt 0.123199 0.642377
vt 0.073791 0.643416
vt 0.275198 0.639183
vt 1.114223 0.949085
vt 1.102243 1.147011
vt 1.139605 0.529723
vt 0.172532 0.641341
vt 1.195640 0.653960
vt 0.925869 0.595729
vt 0.475387 0.634977
vt 0.270271 0.407691
vt 1.403309 0.183225
vt 1.385636 0.281302
vt 0.332803 0.552214
vt 0.365601 0.633253
vt 1.470527 -0.082742
vt 1.458355 0.124701
vt 1.408312 0.977562
vt 1.396216 1.183714
vt 1.433400 0.549992
vt 0.762966 0.784392
vt 0.799631 0.950751
vt 0.763650 0.950271
vt 0.875000 0.718750
vt 0.875000 0.750000
vt 0.843750 0.750000
vt 0.252183 0.667314
vt 0.147090 0.662977
vt 0.355002 0.671558
vt 0.086476 0.620581
vt 0.094705 0.660815
vt 0.418817 0.635669
vt 0.405581 0.673645
vt 0.625000 0.718750
vt 0.656854 0.718750
vt 0.656854 0.750000
vt 0.625000 0.750000
vt 0.625000 0.625000
vt 0.875000 0.500000
vt 0.875000 0.625000
vt 0.656854 0.687500
vt 0.625000 0.687500
vt 0.875000 0.687500
vt 0.368803 0.554152
vt 0.656854 0.687500
vt 0.656854 0.718750
vt 0.668244 0.948997
vt 0.090815 0.604892
vt 0.625000 0.250000
vt 0.625000 0.281250
vt 0.418847 0.486288
vt 1.477200 0.714735
vt -0.482046 0.291828
vt 0.146148 0.542163
vn -0.9995 -0.0068 -0.0296
vn 0.0000 -0.2244 -0.9745
vn 0.9995 -0.0068 -0.0296
vn 0.0000 0.2244 0.9745
vn 0.0000 -0.9745 0.2244
vn 0.0000 -0.1134 0.9936
vn 0.0000 0.1134 -0.9936
vn 0.9299 0.3618 -0.0667
vn 0.9905 -0.1377 -0.0004
vn -0.9342 0.3509 -0.0645
vn 0.9338 0.3519 -0.0644
vn 0.0000 0.9745 -0.2244
vn 0.9914 -0.1312 -0.0019
vn -0.9906 -0.1368 -0.0006
vn -0.9303 0.3606 -0.0668
vn 0.9908 -0.1355 -0.0009
vn 0.9312 0.3585 -0.0660
vn 0.9903 -0.1391 -0.0001
vn -0.9316 0.3574 -0.0660
vn -0.9909 -0.1346 -0.0011
vn -0.9904 -0.1382 -0.0003
vn -0.9915 -0.1303 -0.0021
usemtl Material.001
s off
f 119/161/11 120/162/11 94/163/11 93/164/11
f 117/165/12 115/166/12 98/167/12 97/168/12
f 160/169/13 148/170/13 96/171/13 95/172/13
f 114/173/14 112/174/14 92/175/14 91/176/14
f 158/177/15 160/178/15 95/179/15 116/180/15
f 104/181/16 102/182/16 170/183/16 172/184/16
f 153/185/17 149/186/17 171/187/17 175/188/17
f 151/189/15 150/190/15 101/191/15 106/192/15
f 108/193/14 110/194/14 102/182/14 101/195/14
f 103/196/12 105/197/12 100/198/12 99/199/12
f 111/200/12 113/201/12 105/197/12 103/196/12
f 155/202/15 151/189/15 106/192/15 114/203/15
f 156/204/18 142/205/18 184/206/18 177/207/18
f 101/195/14 102/182/14 104/181/14 106/208/14
f 116/209/14 118/210/14 110/194/14 108/193/14
f 148/170/19 134/211/19 183/212/19 165/213/19
f 150/190/15 154/214/15 108/215/15 101/191/15
f 99/199/12 100/198/12 107/216/12 109/217/12
f 147/218/15 155/202/15 114/203/15 91/219/15
f 93/220/12 94/221/12 113/201/12 111/200/12
f 98/167/17 115/166/17 163/222/17 164/223/17
f 106/208/14 104/181/14 112/174/14 114/173/14
f 115/224/20 131/225/20 182/226/20 163/227/20
f 95/228/14 96/229/14 118/230/14 116/231/14
f 154/214/15 158/177/15 116/180/15 108/215/15
f 109/217/12 107/216/12 115/166/12 117/165/12
f 109/232/15 117/233/15 132/234/15 128/235/15
f 130/236/21 113/237/21 176/238/21 181/239/21
f 105/240/22 113/241/22 130/242/22 126/243/22
f 93/244/15 111/245/15 129/246/15 119/247/15
f 99/248/15 109/232/15 128/235/15 124/249/15
f 115/250/22 107/251/22 127/252/22 131/253/22
f 100/254/22 105/240/22 126/243/22 123/255/22
f 111/245/15 103/256/15 125/257/15 129/246/15
f 103/256/15 99/248/15 124/249/15 125/257/15
f 107/251/22 100/254/22 123/255/22 127/252/22
f 92/175/16 112/174/16 167/258/16 168/259/16
f 117/233/15 97/260/15 121/261/15 132/234/15
f 97/262/13 98/263/13 122/264/13 121/265/13
f 133/266/11 145/267/11 120/162/11 119/161/11
f 147/268/11 159/269/11 145/267/11 133/266/11
f 128/235/15 132/234/15 144/270/15 140/271/15
f 122/264/23 98/263/23 164/272/23 180/273/23
f 126/243/22 130/242/22 142/274/22 138/275/22
f 119/247/15 129/246/15 141/276/15 133/277/15
f 124/249/15 128/235/15 140/271/15 136/278/15
f 131/253/22 127/252/22 139/279/22 143/280/22
f 123/255/22 126/243/22 138/275/22 135/281/22
f 129/246/15 125/257/15 137/282/15 141/276/15
f 125/257/15 124/249/15 136/278/15 137/282/15
f 127/252/22 123/255/22 135/281/22 139/279/22
f 145/267/24 159/269/24 186/283/24 179/284/24
f 132/234/15 121/261/15 146/285/15 144/270/15
f 121/265/13 122/264/13 134/211/13 146/286/13
f 91/287/11 92/288/11 159/269/11 147/268/11
f 140/271/15 144/270/15 158/177/15 154/214/15
f 149/186/17 152/289/17 173/290/17 171/187/17
f 138/275/22 142/274/22 156/291/22 152/292/22
f 133/277/15 141/276/15 155/202/15 147/218/15
f 136/278/15 140/271/15 154/214/15 150/190/15
f 143/280/22 139/279/22 153/293/22 157/294/22
f 135/281/22 138/275/22 152/292/22 149/295/22
f 141/276/15 137/282/15 151/189/15 155/202/15
f 137/282/15 136/278/15 150/190/15 151/189/15
f 139/279/22 135/281/22 149/295/22 153/293/22
f 118/210/16 96/296/16 166/297/16 174/298/16
f 144/270/15 146/285/15 160/178/15 158/177/15
f 146/286/13 134/211/13 148/170/13 160/169/13
f 177/207/22 186/299/22 168/300/22 167/301/22
f 175/188/22 171/187/22 170/302/22 169/303/22
f 171/187/22 173/290/22 172/304/22 170/302/22
f 178/305/22 175/188/22 169/303/22 174/306/22
f 173/290/22 177/307/22 167/308/22 172/304/22
f 165/309/22 178/310/22 174/311/22 166/312/22
f 164/223/22 163/227/22 182/226/22 180/313/22
f 176/238/22 162/314/22 161/315/22 181/239/22
f 180/313/22 182/226/22 185/316/22 183/317/22
f 181/239/22 161/315/22 179/318/22 184/206/22
f 183/317/22 185/316/22 178/310/22 165/309/22
f 184/206/22 179/318/22 186/299/22 177/207/22
f 152/289/17 156/319/17 177/307/17 173/290/17
f 143/320/25 157/321/25 178/310/25 185/316/25
f 134/211/26 122/264/26 180/273/26 183/212/26
f 112/174/16 104/181/16 172/184/16 167/258/16
f 142/205/27 130/236/27 181/239/27 184/206/27
f 102/182/16 110/194/16 169/322/16 170/183/16
f 96/171/28 148/170/28 165/213/28 166/323/28
f 113/201/17 94/221/17 162/324/17 176/325/17
f 131/225/29 143/320/29 185/316/29 182/226/29
f 120/162/30 145/267/30 179/284/30 161/326/30
f 110/194/16 118/210/16 174/298/16 169/322/16
f 159/269/31 92/288/31 168/327/31 186/283/31
f 94/163/32 120/162/32 161/326/32 162/328/32
f 157/329/17 153/185/17 175/188/17 178/305/17
o Cube.002
v -1.178095 -0.651203 -1.243051
v -0.976757 -0.306652 -1.504740
v -0.786899 -0.651203 -4.055547
v -0.652417 -0.306652 -3.793858
v 1.178095 -0.651203 -1.243051
v 0.976757 -0.306652 -1.504740
v 0.786899 -0.651203 -4.055547
v 0.652417 -0.306652 -3.793858
v -1.178095 -0.030378 -1.243051
v -0.786899 -0.030378 -4.055547
v 0.786899 -0.030378 -4.055547
v 1.178095 -0.030378 -1.243051
v -1.178095 -0.651203 -2.774274
v -1.178095 -0.030378 -2.774274
v 1.178095 -0.651203 -2.774274
v 1.178095 -0.030378 -2.774274
v -0.976757 -0.306652 -2.774274
v 0.976757 -0.306652 -2.774274
v 0.000000 -0.651203 -4.305496
v 0.000000 -0.030378 -4.305496
v 0.000000 -0.651203 -1.243051
v 0.000000 -0.030378 -1.243051
v 0.000000 -0.306652 -4.043808
v 0.000000 -0.306652 -1.504740
v 0.000000 -0.306652 -2.774274
v 0.000000 -0.651203 -2.774274
vt 0.137294 0.623291
vt 0.136422 0.698334
vt -0.004502 0.700463
vt -0.004952 0.631977
vt 0.485547 0.308877
vt 0.484357 0.303061
vt 0.426497 0.320753
vt 0.431199 0.325471
vt 0.282947 0.583994
vt 0.282329 0.659020
vt 0.099155 0.657802
vt 0.094223 0.580728
vt 0.375000 0.875000
vt 0.625000 0.875000
vt 0.625000 1.000000
vt 0.375000 1.000000
vt 0.471936 0.233403
vt 0.373478 0.226825
vt 0.386435 0.103749
vt 0.481150 0.109942
vt 0.669141 0.521994
vt 0.576479 0.528011
vt 0.567924 0.406575
vt 0.661378 0.400354
vt 0.482367 0.463941
vt 0.461608 0.390752
vt 0.472724 0.369813
vt 0.498160 0.464767
vt 0.484590 0.324903
vt 0.438088 0.342139
vt 0.414955 0.414410
vt 0.414751 0.502009
vt 0.398134 0.522728
vt 0.398006 0.414568
vt 0.750000 0.728637
vt 0.853637 0.728637
vt 0.875000 0.750000
vt 0.750000 0.750000
vt 0.548590 0.504778
vt 0.551268 0.417186
vt 0.567062 0.418012
vt 0.563400 0.526160
vt 0.676772 0.641563
vt 0.613780 0.622098
vt 0.461961 0.367064
vt 0.395606 0.339865
vt 0.416547 0.591560
vt 0.412597 0.657824
vt 0.320195 0.625565
vt 0.317579 0.700266
vt 0.531790 0.349136
vt 0.570615 0.239995
vt 0.736880 0.614262
vt 0.762033 0.515962
vt 0.646363 0.728637
vt 0.625000 0.750000
vt 0.415688 0.371658
vt 0.415455 0.349816
vt 0.755065 0.394118
vt 0.576069 0.116150
vt 0.375000 0.750000
vt 0.539330 0.327639
vt 0.541626 0.323058
vn -0.9564 0.0000 -0.2920
vn 0.3027 0.0000 -0.9531
vn 1.0000 0.0000 0.0000
vn 0.0000 0.0000 1.0000
vn 0.0000 -1.0000 0.0000
vn 0.0000 1.0000 0.0000
vn 0.7746 0.5848 0.2409
vn -0.2350 0.6980 0.6765
vn -0.8082 0.5890 0.0000
vn 0.0000 0.6877 -0.7260
vn -0.7746 0.5848 0.2409
vn 0.8082 0.5890 0.0000
vn 0.9564 0.0000 -0.2920
vn -1.0000 0.0000 0.0000
vn 0.2350 0.6980 0.6765
vn -0.3027 0.0000 -0.9531
usemtl Material.002
s off
f 199/330/33 200/331/33 196/332/33 189/333/33
f 205/334/34 206/335/34 197/336/34 193/337/34
f 201/338/35 202/339/35 198/340/35 191/341/35
f 207/342/36 208/343/36 195/344/36 187/345/36
f 212/346/37 201/347/37 191/348/37 207/349/37
f 211/350/38 203/351/38 188/352/38 210/353/38
f 203/354/39 190/355/39 196/356/39 200/357/39
f 209/358/40 194/359/40 197/336/40 206/335/40
f 204/360/41 192/361/41 198/362/41 202/363/41
f 210/364/42 188/365/42 195/366/42 208/367/42
f 194/359/43 204/360/43 202/363/43 197/336/43
f 188/368/44 203/369/44 200/370/44 195/371/44
f 209/372/38 190/373/38 203/351/38 211/350/38
f 205/374/37 193/375/37 201/347/37 212/346/37
f 193/376/45 197/377/45 202/339/45 201/338/45
f 187/378/46 195/379/46 200/331/46 199/330/46
f 189/380/37 205/374/37 212/346/37 199/381/37
f 194/382/38 209/372/38 211/350/38 204/383/38
f 192/384/42 210/364/42 208/367/42 198/385/42
f 190/355/47 209/386/47 206/387/47 196/356/47
f 204/383/38 211/350/38 210/353/38 192/388/38
f 199/381/37 212/346/37 207/349/37 187/389/37
f 191/390/36 198/385/36 208/343/36 207/342/36
f 189/391/48 196/392/48 206/335/48 205/334/48
